<?xml version="1.0" encoding="UTF-8"?>
<svg width="38px" height="35px" viewBox="0 0 38 35" version="1.1" xmlns="http://www.w3.org/2000/svg" xmlns:xlink="http://www.w3.org/1999/xlink">
    <title>social-media</title>
    <g id="Page-1" stroke="none" stroke-width="1" fill="none" fill-rule="evenodd">
        <g id="Desktop-HD" transform="translate(-516.000000, -798.000000)" fill="#FFFFFF" fill-rule="nonzero">
            <g id="social-media" transform="translate(516.000000, 798.000000)">
                <path d="M19,0 C8.5025,0 0,8.03466249 0,17.9440796 C0,25.8737436 5.4435,32.5982083 12.99125,34.9690424 C13.94125,35.1379529 14.2895833,34.5825264 14.2895833,34.1062292 C14.2895833,33.6801486 14.27375,32.5510351 14.2658333,31.0551879 C8.98066667,32.1371282 7.866,28.6478326 7.866,28.6478326 C7.0015,26.5767766 5.75225,26.0228718 5.75225,26.0228718 C4.03116667,24.9104971 5.88525,24.9333229 5.88525,24.9333229 C7.79316667,25.0581036 8.79541667,26.7822083 8.79541667,26.7822083 C10.4895833,29.5258629 13.243,28.7330487 14.3291667,28.2750121 C14.5001667,27.1139425 14.9894167,26.3241717 15.5325,25.8752653 C11.3129167,25.426359 6.878,23.8833386 6.878,17.008224 C6.878,15.049775 7.61425,13.4489294 8.83341667,12.1935134 C8.61966667,11.7400419 7.97841667,9.91550393 8.99966667,7.44423653 C8.99966667,7.44423653 10.5909167,6.96337415 14.2246667,9.28399163 C15.7446667,8.88530194 17.3596667,8.68747881 18.9746667,8.67834851 C20.5896667,8.68747881 22.2046667,8.88530194 23.7246667,9.28399163 C27.3346667,6.96337415 28.9259167,7.44423653 28.9259167,7.44423653 C29.9471667,9.91550393 29.3059167,11.7400419 29.1159167,12.1935134 C30.3271667,13.4489294 31.0634167,15.049775 31.0634167,17.008224 C31.0634167,23.9015992 26.6221667,25.4187504 22.3946667,25.8600482 C23.0596667,26.3987358 23.6771667,27.4989367 23.6771667,29.1804333 C23.6771667,31.5817017 23.6534167,33.5112381 23.6534167,34.0940555 C23.6534167,34.5642659 23.9859167,35.1257792 24.9596667,34.9462167 C32.56125,32.5905997 38,25.8615699 38,17.9440796 C38,8.03466249 29.49275,0 19,0 L19,0 Z" id="Path"></path>
            </g>
        </g>
    </g>
</svg>