<?xml version="1.0" encoding="UTF-8"?>
<svg width="38px" height="38px" viewBox="0 0 38 38" version="1.1" xmlns="http://www.w3.org/2000/svg" xmlns:xlink="http://www.w3.org/1999/xlink">
    <title>Shape</title>
    <g id="Page-1" stroke="none" stroke-width="1" fill="none" fill-rule="evenodd">
        <g id="Desktop-HD" transform="translate(-570.000000, -798.000000)" fill="#FFFFFF" fill-rule="nonzero">
            <g id="social-media-(1)" transform="translate(570.000000, 798.000000)">
                <path d="M35.2594147,0 L2.74058531,0 C1.22692871,0 0,1.22692871 0,2.74058531 L0,35.2594147 C0,36.7730713 1.22692871,38 2.74058531,38 L35.2594147,38 C36.7730713,38 38,36.7730713 38,35.2594147 L38,2.74058531 C38,1.22692871 36.7730713,0 35.2594147,0 Z M13.4788208,28.7226562 L8.85145571,28.7226562 L8.85145571,14.8011322 L13.4788208,14.8011322 L13.4788208,28.7226562 Z M11.1652832,12.9001465 L11.1351318,12.9001465 C9.58233643,12.9001465 8.57806396,11.8312225 8.57806396,10.495285 C8.57806396,9.12919615 9.61306766,8.08984375 11.1960144,8.08984375 C12.7789612,8.08984375 13.7530823,9.12919615 13.7832337,10.495285 C13.7832337,11.8312225 12.7789612,12.9001465 11.1652832,12.9001465 Z M30.1641235,28.7226562 L25.5373382,28.7226562 L25.5373382,21.2749787 C25.5373382,19.4032746 24.8673401,18.12677 23.1930695,18.12677 C21.9148255,18.12677 21.1535034,18.9878235 20.8189392,19.8190155 C20.6965942,20.1164704 20.6667328,20.5322113 20.6667328,20.9482422 L20.6667328,28.7226562 L16.0396576,28.7226562 C16.0396576,28.7226562 16.1002503,16.1072083 16.0396576,14.8011322 L20.6667328,14.8011322 L20.6667328,16.7722778 C21.2816468,15.8236694 22.3818817,14.4743958 24.8368988,14.4743958 C27.8813171,14.4743958 30.1641235,16.4640961 30.1641235,20.7400818 L30.1641235,28.7226562 Z" id="Shape"></path>
            </g>
        </g>
    </g>
</svg>